<svg width="250" height="250" viewBox="0 0 250 250" fill="none" xmlns="http://www.w3.org/2000/svg">
<path d="M250 125C250 194.036 194.036 250 125 250C55.9635 250 0 194.036 0 125C0 55.9635 55.9635 0 125 0C194.036 0 250 55.9635 250 125Z" fill="#4CAF50"/>
<path d="M249.912 129.457L195.58 75.1247L178.385 79.6719L166.771 68.058L160.925 75.6817L139.484 54.2431L109.388 61.0485L108.934 61.1191L94.9936 47.1764L44.9219 71.0735L76.9882 103.14L44.9219 112.837L85.9089 153.822L44.9219 161.062L76.5553 192.696L44.9219 202.824L85.8288 243.731C98.1522 247.793 111.317 250 125 250C192.543 250 247.564 196.426 249.912 129.457V129.457Z" fill="#4CAF50"/>
<path d="M139.486 105.77H84.9609V96.0046H129.721V64.0088H84.9609V54.2432H139.486V105.77Z" fill="#256728"/>
<path d="M195.58 174.875H166.771V165.11H185.814V84.8904H166.771V75.1248H195.58V174.875Z" fill="#256728"/>
<path d="M185.814 124.954V165.11H166.771V174.875H195.58V124.954H185.814Z" fill="#256728"/>
<path d="M44.9219 47.1764H94.9936V71.0735H44.9219V47.1764Z" fill="white"/>
<path d="M44.9219 88.9397H94.9936V112.837H44.9219V88.9397Z" fill="white"/>
<path d="M139.486 195.757H84.9609V185.991H129.721V153.996H84.9609V144.23H139.486V195.757Z" fill="#256728"/>
<path d="M44.9219 137.163H94.9936V161.06H44.9219V137.163Z" fill="white"/>
<path d="M44.9219 178.926H94.9936V202.824H44.9219V178.926Z" fill="white"/>
<path d="M116.699 68.058H166.771V91.9552H116.699V68.058Z" fill="white"/>
<path d="M116.699 158.045H166.771V181.942H116.699V158.045Z" fill="white"/>
<path d="M175.514 113.051H225.586V136.95H175.514V113.051Z" fill="white"/>
<path d="M175.514 124.954H225.586V136.95H175.514V124.954Z" fill="white"/>
</svg>
