<svg width="601" height="595" viewBox="0 0 601 595" fill="none" xmlns="http://www.w3.org/2000/svg">
<g clip-path="url(#clip0)">
<path d="M300.499 297.5L231.543 343.228C219.597 351.146 209.365 361.316 201.431 373.157C193.497 384.997 188.017 398.275 185.304 412.233C182.591 426.191 182.697 440.556 185.618 454.506C188.539 468.456 194.216 481.718 202.326 493.536L216.569 514.297L285.524 468.57C297.471 460.651 307.703 450.481 315.637 438.641C323.571 426.801 329.051 413.522 331.764 399.564C334.477 385.606 334.371 371.242 331.45 357.291C328.529 343.341 322.851 330.079 314.741 318.262L300.499 297.5Z" fill="#FD84B3"/>
<path d="M384.429 80.7037L315.474 126.431C303.527 134.35 293.295 144.52 285.361 156.36C277.427 168.2 271.947 181.478 269.234 195.437C266.521 209.395 266.627 223.759 269.548 237.709C272.469 251.659 278.147 264.922 286.257 276.739L300.499 297.5L369.455 251.773C381.401 243.854 391.633 233.684 399.567 221.844C407.501 210.004 412.981 196.726 415.694 182.768C418.408 168.809 418.301 154.445 415.38 140.495C412.459 126.545 406.782 113.282 398.672 101.465L384.429 80.7037Z" fill="#FD84B3"/>
<path d="M285.057 376.943L300.499 297.5L326.121 302.481C340.323 305.241 353.849 310.728 365.93 318.628C378.01 326.528 388.407 336.687 396.527 348.524C404.647 360.361 410.332 373.645 413.256 387.616C416.18 401.588 416.286 415.975 413.569 429.954L398.127 509.397L372.504 504.416C343.824 498.841 318.498 482.279 302.099 458.373C285.699 434.467 279.569 405.176 285.057 376.943V376.943Z" fill="#FDA2C6"/>
<path d="M187.429 165.046L202.871 85.604L228.494 90.5845C242.695 93.3449 256.222 98.8318 268.302 106.732C280.382 114.632 290.779 124.79 298.899 136.628C307.02 148.465 312.704 161.748 315.628 175.72C318.552 189.692 318.658 204.078 315.941 218.058L300.499 297.5L274.877 292.52C246.196 286.945 220.871 270.383 204.471 246.477C188.072 222.571 181.941 193.28 187.429 165.046V165.046Z" fill="#FDA2C6"/>
<path d="M300.499 297.5L346.643 364.766C363.043 388.672 388.369 405.234 417.05 410.809C445.731 416.384 475.417 410.515 499.578 394.493L521.153 380.583L475.017 312.915C458.617 289.009 433.291 272.447 404.61 266.872C375.93 261.297 346.244 267.166 322.083 283.188L300.499 297.5Z" fill="#FD84B3"/>
<path d="M79.8449 214.417L125.981 282.085C142.381 305.991 167.707 322.553 196.388 328.128C225.069 333.703 254.755 327.834 278.916 311.812L300.499 297.5L254.355 230.234C237.955 206.328 212.629 189.766 183.948 184.191C155.268 178.616 125.582 184.485 101.421 200.507L79.8449 214.417Z" fill="#FD84B3"/>
<path d="M381.2 313.187L300.499 297.5L305.402 272.278C310.89 244.044 327.546 219.182 351.707 203.16C375.868 187.139 405.554 181.27 434.234 186.845L514.935 202.531L510.032 227.754C504.544 255.987 487.888 280.849 463.727 296.871C439.566 312.893 409.88 318.762 381.2 313.187Z" fill="#FDA2C6"/>
<path d="M166.764 408.156L86.0633 392.47L90.9661 367.247C93.6834 353.267 99.1713 339.968 107.116 328.109C115.061 316.25 125.308 306.063 137.271 298.13C149.234 290.196 162.68 284.672 176.84 281.873C191 279.073 205.597 279.053 219.798 281.814L300.499 297.5L295.596 322.723C290.108 350.956 273.452 375.819 249.291 391.84C225.13 407.862 195.445 413.731 166.764 408.156V408.156Z" fill="#FDA2C6"/>
<path d="M355.578 308.207C361.398 278.262 341.457 249.194 311.038 243.281C280.619 237.368 251.241 256.85 245.421 286.794C239.6 316.739 259.541 345.807 289.96 351.72C320.379 357.633 349.757 338.151 355.578 308.207Z" fill="#FFE76C"/>
</g>
<defs>
<clipPath id="clip0">
<rect width="505" height="513" fill="white" transform="translate(0.53241 496.419) rotate(-79)"/>
</clipPath>
</defs>
</svg>
