<svg width="439" height="439" viewBox="0 0 439 439" fill="none" xmlns="http://www.w3.org/2000/svg">
<g clip-path="url(#clip0)">
<path d="M436.25 181.438C434.721 179.436 432.726 178.245 430.255 177.867L378.006 169.875C375.152 160.738 371.25 151.414 366.302 141.895C369.724 137.137 374.861 130.429 381.712 121.766C388.563 113.105 393.415 106.779 396.273 102.78C397.796 100.686 398.552 98.499 398.552 96.213C398.552 93.55 397.892 91.458 396.554 89.933C389.706 80.225 374.002 64.048 349.448 41.397C347.173 39.494 344.787 38.543 342.316 38.543C339.459 38.543 337.176 39.398 335.462 41.11L294.923 71.659C287.117 67.66 278.552 64.139 269.23 61.094L261.236 8.565C261.045 6.091 259.949 4.044 257.951 2.426C255.95 0.806 253.623 0 250.954 0H187.574C182.054 0 178.627 2.663 177.296 7.993C174.821 17.506 172.06 35.207 169.016 61.093C160.069 63.953 151.409 67.569 143.035 71.946L103.636 41.397C101.162 39.494 98.688 38.543 96.214 38.543C92.027 38.543 83.035 45.347 69.235 58.956C55.435 72.568 46.066 82.797 41.113 89.646C39.399 92.12 38.545 94.31 38.545 96.213C38.545 98.499 39.495 100.783 41.398 103.064C54.149 118.484 64.334 131.613 71.948 142.467C67.189 151.221 63.478 159.978 60.816 168.732L7.711 176.724C5.618 177.106 3.811 178.345 2.287 180.439C0.76 182.531 0 184.722 0 187.002V250.385C0 252.863 0.76 255.094 2.284 257.093C3.808 259.091 5.805 260.288 8.28 260.665L60.53 268.375C63.193 277.7 67.094 287.118 72.234 296.632C68.81 301.393 63.671 308.1 56.819 316.761C49.968 325.426 45.11 331.75 42.258 335.747C40.733 337.849 39.973 340.032 39.973 342.317C39.973 344.788 40.639 346.975 41.97 348.878C49.393 359.162 65.095 375.15 89.079 396.847C91.174 398.941 93.554 399.985 96.216 399.985C99.073 399.985 101.452 399.133 103.354 397.422L143.613 366.869C151.421 370.866 159.984 374.388 169.31 377.437L177.303 429.966C177.496 432.437 178.59 434.484 180.586 436.106C182.583 437.728 184.917 438.529 187.581 438.529H250.961C256.491 438.529 259.913 435.867 261.248 430.535C263.719 421.021 266.477 403.322 269.522 377.437C278.468 374.579 287.129 370.961 295.503 366.582L334.905 397.422C337.568 399.134 340.046 399.985 342.325 399.985C346.511 399.985 355.456 393.233 369.158 379.715C382.867 366.204 392.288 355.925 397.422 348.878C399.133 346.976 399.991 344.788 399.991 342.317C399.991 339.839 399.044 337.455 397.134 335.178C383.436 318.424 373.251 305.296 366.588 295.776C370.394 288.733 374.107 280.075 377.724 269.796L430.541 261.808C432.82 261.425 434.73 260.186 436.249 258.092C437.772 255.994 438.528 253.804 438.528 251.521V188.145C438.533 185.671 437.777 183.438 436.25 181.438ZM270.946 270.939C256.675 285.216 239.449 292.355 219.27 292.355C199.093 292.355 181.869 285.216 167.592 270.939C153.32 256.668 146.181 239.441 146.181 219.266C146.181 199.089 153.316 181.865 167.592 167.588C181.869 153.316 199.096 146.177 219.27 146.177C239.449 146.177 256.676 153.316 270.946 167.588C285.22 181.865 292.359 199.089 292.359 219.266C292.359 239.441 285.221 256.669 270.946 270.939Z" fill="#4CAF50"/>
</g>
<defs>
<clipPath id="clip0">
<rect width="438.529" height="438.529" fill="white"/>
</clipPath>
</defs>
</svg>
