<svg width="491" height="491" viewBox="0 0 491 491" fill="none" xmlns="http://www.w3.org/2000/svg">
<g clip-path="url(#clip0)">
<path d="M245.213 469.415C242.382 469.42 239.665 468.3 237.661 466.3L2.99389 231.633C-1.09911 227.396 -0.981113 220.643 3.25589 216.55C7.38989 212.558 13.9429 212.558 18.0759 216.55L245.212 443.665L472.327 216.529C476.564 212.436 483.317 212.554 487.41 216.791C491.403 220.925 491.403 227.478 487.41 231.612L252.744 466.279C250.748 468.28 248.04 469.408 245.213 469.415Z" fill="#4CAF50"/>
<path d="M245.213 277.415C242.382 277.42 239.665 276.3 237.661 274.3L2.99389 39.633C-1.09911 35.396 -0.981113 28.643 3.25589 24.55C7.38989 20.558 13.9429 20.558 18.0769 24.55L245.213 251.665L472.328 24.529C476.421 20.292 483.173 20.175 487.411 24.267C491.649 28.359 491.765 35.112 487.673 39.35C487.587 39.439 487.5 39.526 487.411 39.612L252.744 274.279C250.748 276.28 248.04 277.408 245.213 277.415Z" fill="#4CAF50"/>
</g>
<defs>
<clipPath id="clip0">
<rect width="490.688" height="490.688" fill="white"/>
</clipPath>
</defs>
</svg>
